<?xml version="1.0" encoding="UTF-8"?>
<!DOCTYPE svg PUBLIC "-//W3C//DTD SVG 1.1//EN" "http://www.w3.org/Graphics/SVG/1.1/DTD/svg11.dtd">
<!-- Creator: CorelDRAW 2021 (64-Bit) -->
<svg xmlns="http://www.w3.org/2000/svg" xml:space="preserve" width="42.3332mm" height="42.3332mm" version="1.1" style="shape-rendering:geometricPrecision; text-rendering:geometricPrecision; image-rendering:optimizeQuality; fill-rule:evenodd; clip-rule:evenodd"
viewBox="0 0 4233.32 4233.32"
 xmlns:xlink="http://www.w3.org/1999/xlink"
 xmlns:xodm="http://www.corel.com/coreldraw/odm/2003">
 <defs>
  <style type="text/css">
   <![CDATA[
    .fil0 {fill:white}
   ]]>
  </style>
 </defs>
 <g id="Layer_x0020_1">
  <metadata id="CorelCorpID_0Corel-Layer"/>
  <path class="fil0" d="M1209.82 898.94c-330.97,-330.49 -729.42,-872.3 -955.77,-645.95 -203.91,203.9 123.18,431.54 218.12,526.48 251.05,250.24 1225.54,1190.51 1312.24,1336.62 -102.68,173.72 -696.16,720.86 -883.6,908.3 -156.77,156.77 -288.02,288.83 -447.37,447.21 -93.8,93.48 -399.91,307.08 -199.39,507.76 203.91,203.74 431.87,-122.86 526.64,-217.8 250.08,-251.37 1190.84,-1224.09 1336.47,-1312.56 146.43,86.69 1100.74,1075.07 1355.51,1330.81 93.15,93.64 307.23,399.9 507.59,199.39 203.75,-203.91 -122.38,-432.36 -217.15,-526.81 -851.96,-850.5 -1702.3,-1702.46 -2553.29,-2553.45zm1468.37 952.05c220.05,-227.8 528.09,-514.37 656.12,-642.4 327.58,-327.74 872.78,-728.45 646.27,-955.6 -204.07,-204.07 -431.71,123.18 -526.48,218.11 -183.89,184.37 -741.85,761.06 -1082.02,1087.35l306.11 292.54z"/>
 </g>
</svg>
