<?xml version="1.0" encoding="UTF-8"?>
<!DOCTYPE svg PUBLIC "-//W3C//DTD SVG 1.1//EN" "http://www.w3.org/Graphics/SVG/1.1/DTD/svg11.dtd">
<!-- Creator: CorelDRAW 2021 (64-Bit) -->
<svg xmlns="http://www.w3.org/2000/svg" xml:space="preserve" width="162.56mm" height="91.4398mm" version="1.1" style="shape-rendering:geometricPrecision; text-rendering:geometricPrecision; image-rendering:optimizeQuality; fill-rule:evenodd; clip-rule:evenodd"
viewBox="0 0 16255.98 9143.98"
 xmlns:xlink="http://www.w3.org/1999/xlink"
 xmlns:xodm="http://www.corel.com/coreldraw/odm/2003">
 <defs>
  <style type="text/css">
   <![CDATA[
    .fil1 {fill:white}
    .fil0 {fill:white;fill-rule:nonzero}
   ]]>
  </style>
 </defs>
 <g id="Layer_x0020_1">
  <metadata id="CorelCorpID_0Corel-Layer"/>
  <g id="_1605849213648">
   <path class="fil0" d="M1346.35 4570.18c0,64.87 -10.81,124.43 -32.43,178.69 -21.63,54.26 -52.02,100.98 -91.19,140.14 -39.16,39.17 -86.28,69.56 -141.36,91.19 -55.08,21.62 -116.07,32.43 -182.98,32.43l-337.8 0 0 -884.9 337.8 0c66.91,0 127.9,10.81 182.98,32.64 55.08,21.82 102.2,52.22 141.36,91.18 39.17,38.96 69.56,85.67 91.19,139.94 21.62,54.26 32.43,113.82 32.43,178.69zm-168.29 0c0,-48.55 -6.53,-92.2 -19.58,-130.76 -13.06,-38.55 -31.62,-71.19 -55.69,-97.91 -24.07,-26.72 -53.24,-47.12 -87.72,-61.4 -34.47,-14.28 -73.43,-21.42 -116.68,-21.42l-171.96 0 0 622.98 171.96 0c43.25,0 82.21,-7.14 116.68,-21.42 34.48,-14.28 63.65,-34.88 87.72,-61.6 24.07,-26.73 42.63,-59.36 55.69,-97.92 13.05,-38.55 19.58,-82 19.58,-130.55zm548.32 -195.22c39.58,0 76.09,6.33 109.34,18.97 33.25,12.85 61.81,31.21 85.88,55.69 24.07,24.28 42.84,54.26 56.3,89.55 13.46,35.5 20.2,75.89 20.2,121.38 0,11.42 -0.41,21.01 -1.43,28.55 -1.02,7.55 -2.86,13.47 -5.51,17.75 -2.65,4.29 -6.32,7.35 -10.81,9.18 -4.49,1.84 -10.2,2.86 -17.14,2.86l-387.98 0c4.48,64.05 21.82,110.97 52.01,140.95 30.19,29.99 70.18,45.08 119.95,45.08 24.48,0 45.69,-2.85 63.44,-8.56 17.75,-5.72 33.25,-11.83 46.51,-18.77 13.26,-6.94 24.89,-13.26 34.88,-18.97 10,-5.51 19.58,-8.36 28.97,-8.36 6.12,0 11.42,1.22 15.91,3.67 4.49,2.44 8.36,5.91 11.63,10.4l44.06 55.28c-16.73,19.58 -35.5,35.9 -56.3,49.16 -20.81,13.26 -42.43,23.87 -65.08,31.82 -22.64,7.96 -45.69,13.67 -69.15,16.94 -23.46,3.26 -46.3,4.89 -68.33,4.89 -43.66,0 -84.25,-7.34 -121.78,-21.83 -37.54,-14.48 -70.18,-35.9 -97.92,-64.25 -27.74,-28.36 -49.57,-63.44 -65.48,-105.26 -15.91,-42.02 -23.87,-90.37 -23.87,-145.65 0,-42.83 6.94,-83.02 20.81,-120.96 13.87,-37.74 33.86,-70.58 59.77,-98.53 25.91,-27.95 57.52,-50.18 94.85,-66.5 37.33,-16.32 79.36,-24.48 126.27,-24.48zm3.06 108.93c-44.06,0 -78.53,12.45 -103.42,37.33 -24.89,24.89 -40.8,60.18 -47.73,105.87l283.95 0c0,-19.58 -2.65,-38.14 -7.96,-55.48 -5.3,-17.34 -13.46,-32.44 -24.48,-45.49 -11.01,-13.06 -24.88,-23.46 -41.61,-31.01 -16.73,-7.55 -36.31,-11.22 -58.75,-11.22zm686.02 528.74l-137.08 0 -249.68 -627.88 125.45 0c11.02,0 20.4,2.66 27.95,7.96 7.54,5.3 12.64,12.03 15.5,20.19l121.17 335.36c6.93,19.58 12.85,38.76 17.54,57.53 4.69,18.76 8.77,37.53 12.45,56.3 3.67,-18.77 7.95,-37.54 12.64,-56.3 4.69,-18.77 10.61,-37.95 17.95,-57.53l124.23 -335.36c2.86,-8.16 7.96,-14.89 15.3,-20.19 7.35,-5.3 16.12,-7.96 26.32,-7.96l119.33 0 -249.07 627.88zm577.69 -637.67c39.58,0 76.09,6.33 109.34,18.97 33.25,12.85 61.81,31.21 85.88,55.69 24.07,24.28 42.84,54.26 56.3,89.55 13.46,35.5 20.2,75.89 20.2,121.38 0,11.42 -0.41,21.01 -1.43,28.55 -1.02,7.55 -2.86,13.47 -5.51,17.75 -2.65,4.29 -6.32,7.35 -10.81,9.18 -4.49,1.84 -10.2,2.86 -17.14,2.86l-387.98 0c4.48,64.05 21.82,110.97 52.01,140.95 30.19,29.99 70.18,45.08 119.95,45.08 24.48,0 45.69,-2.85 63.44,-8.56 17.75,-5.72 33.25,-11.83 46.51,-18.77 13.26,-6.94 24.89,-13.26 34.88,-18.97 10,-5.51 19.58,-8.36 28.97,-8.36 6.12,0 11.42,1.22 15.91,3.67 4.49,2.44 8.36,5.91 11.63,10.4l44.06 55.28c-16.73,19.58 -35.5,35.9 -56.3,49.16 -20.81,13.26 -42.43,23.87 -65.08,31.82 -22.64,7.96 -45.69,13.67 -69.15,16.94 -23.46,3.26 -46.3,4.89 -68.33,4.89 -43.66,0 -84.25,-7.34 -121.78,-21.83 -37.54,-14.48 -70.18,-35.9 -97.92,-64.25 -27.74,-28.36 -49.57,-63.44 -65.48,-105.26 -15.91,-42.02 -23.87,-90.37 -23.87,-145.65 0,-42.83 6.94,-83.02 20.81,-120.96 13.87,-37.74 33.86,-70.58 59.77,-98.53 25.91,-27.95 57.52,-50.18 94.85,-66.5 37.33,-16.32 79.36,-24.48 126.27,-24.48zm3.06 108.93c-44.06,0 -78.53,12.45 -103.42,37.33 -24.89,24.89 -40.8,60.18 -47.73,105.87l283.95 0c0,-19.58 -2.65,-38.14 -7.96,-55.48 -5.3,-17.34 -13.46,-32.44 -24.48,-45.49 -11.01,-13.06 -24.88,-23.46 -41.61,-31.01 -16.73,-7.55 -36.31,-11.22 -58.75,-11.22zm552.61 -380.64l0 909.38 -151.16 0 0 -909.38 151.16 0zm438.78 272.32c46.92,0 89.55,7.55 127.7,22.65 38.14,15.09 70.58,36.51 97.5,64.25 26.93,27.75 47.74,61.61 62.42,101.59 14.69,39.98 22.03,84.65 22.03,134.02 0,49.77 -7.34,94.65 -22.03,134.63 -14.68,39.98 -35.49,74.05 -62.42,102.2 -26.92,28.15 -59.36,49.77 -97.5,64.87 -38.15,15.09 -80.78,22.64 -127.7,22.64 -46.92,0 -89.55,-7.55 -127.9,-22.64 -38.35,-15.1 -70.99,-36.72 -98.12,-64.87 -27.13,-28.15 -48.14,-62.22 -63.03,-102.2 -14.89,-39.98 -22.44,-84.86 -22.44,-134.63 0,-49.37 7.55,-94.04 22.44,-134.02 14.89,-39.98 35.9,-73.84 63.03,-101.59 27.13,-27.74 59.77,-49.16 98.12,-64.25 38.35,-15.1 80.98,-22.65 127.9,-22.65zm0 531.19c52.22,0 90.98,-17.54 116.07,-52.63 25.09,-35.29 37.53,-86.69 37.53,-154.62 0,-67.73 -12.44,-119.34 -37.53,-155.03 -25.09,-35.5 -63.85,-53.24 -116.07,-53.24 -53.04,0 -92.2,17.95 -117.5,53.64 -25.29,35.7 -37.94,87.31 -37.94,154.63 0,67.52 12.65,118.92 37.94,154.21 25.3,35.29 64.46,53.04 117.5,53.04zm427.76 311.49l0 -833.5 92.41 0c9.79,0 18.15,2.25 25.09,6.74 6.93,4.69 11.42,11.62 13.46,21.21l12.24 58.95c25.29,-29.17 54.46,-52.83 87.31,-70.78 32.84,-18.16 71.19,-27.13 115.25,-27.13 34.27,0 65.68,7.14 94.04,21.42 28.35,14.28 52.83,35.08 73.43,62.21 20.61,27.13 36.52,60.59 47.74,100.37 11.22,39.98 16.72,85.47 16.72,136.87 0,47.12 -6.32,90.57 -18.97,130.55 -12.64,39.99 -30.59,74.66 -54.05,104.24 -23.46,29.38 -51.82,52.22 -85.07,68.75 -33.25,16.52 -70.58,24.88 -111.78,24.88 -35.5,0 -65.48,-5.5 -90.17,-16.32 -24.68,-10.81 -46.91,-25.7 -66.5,-44.87l0 256.41 -151.15 0zm293.74 -724.57c-31.41,0 -58.13,6.94 -80.37,21.01 -22.23,14.08 -43.04,34.07 -62.22,59.57l0 277.02c17.14,21.01 35.91,35.49 56.1,43.65 20.2,8.36 41.82,12.44 65.07,12.44 22.85,0 43.66,-4.28 62.22,-12.85 18.56,-8.57 34.27,-21.62 47.12,-39.17 12.85,-17.54 22.64,-39.57 29.58,-66.29 6.94,-26.52 10.4,-58.14 10.4,-94.45 0,-36.51 -2.85,-67.52 -8.77,-93.02 -5.91,-25.5 -14.48,-46.1 -25.5,-62.01 -11.01,-15.91 -24.27,-27.54 -39.98,-34.88 -15.71,-7.34 -33.66,-11.02 -53.65,-11.02zm657.86 -118.72c39.58,0 76.09,6.33 109.34,18.97 33.25,12.85 61.81,31.21 85.88,55.69 24.07,24.28 42.84,54.26 56.3,89.55 13.46,35.5 20.2,75.89 20.2,121.38 0,11.42 -0.41,21.01 -1.43,28.55 -1.02,7.55 -2.86,13.47 -5.51,17.75 -2.65,4.29 -6.32,7.35 -10.81,9.18 -4.49,1.84 -10.2,2.86 -17.14,2.86l-387.98 0c4.48,64.05 21.82,110.97 52.01,140.95 30.19,29.99 70.18,45.08 119.95,45.08 24.48,0 45.69,-2.85 63.44,-8.56 17.75,-5.72 33.25,-11.83 46.51,-18.77 13.26,-6.94 24.89,-13.26 34.88,-18.97 10,-5.51 19.58,-8.36 28.97,-8.36 6.12,0 11.42,1.22 15.91,3.67 4.49,2.44 8.36,5.91 11.63,10.4l44.06 55.28c-16.73,19.58 -35.5,35.9 -56.3,49.16 -20.81,13.26 -42.43,23.87 -65.08,31.82 -22.64,7.96 -45.69,13.67 -69.15,16.94 -23.46,3.26 -46.3,4.89 -68.33,4.89 -43.66,0 -84.25,-7.34 -121.78,-21.83 -37.54,-14.48 -70.18,-35.9 -97.92,-64.25 -27.74,-28.36 -49.57,-63.44 -65.48,-105.26 -15.91,-42.02 -23.87,-90.37 -23.87,-145.65 0,-42.83 6.94,-83.02 20.81,-120.96 13.87,-37.74 33.86,-70.58 59.77,-98.53 25.91,-27.95 57.52,-50.18 94.85,-66.5 37.33,-16.32 79.36,-24.48 126.27,-24.48zm3.06 108.93c-44.06,0 -78.53,12.45 -103.42,37.33 -24.89,24.89 -40.8,60.18 -47.73,105.87l283.95 0c0,-19.58 -2.65,-38.14 -7.96,-55.48 -5.3,-17.34 -13.46,-32.44 -24.48,-45.49 -11.01,-13.06 -24.88,-23.46 -41.61,-31.01 -16.73,-7.55 -36.31,-11.22 -58.75,-11.22zm833.5 528.74c-19.58,0 -32.44,-8.98 -38.56,-27.13l-12.23 -59.57c-13.06,14.49 -26.73,27.75 -41.01,39.37 -14.28,11.84 -29.57,21.83 -46.1,30.4 -16.52,8.57 -34.27,15.09 -53.24,19.79 -18.97,4.69 -39.57,6.93 -61.6,6.93 -34.27,0 -65.69,-7.14 -94.25,-21.42 -28.55,-14.28 -53.03,-35.08 -73.64,-62.21 -20.6,-27.13 -36.51,-60.59 -47.73,-100.57 -11.22,-39.98 -16.93,-85.68 -16.93,-137.08 0,-46.51 6.32,-89.76 18.97,-129.74 12.65,-39.98 30.8,-74.66 54.47,-104.03 23.66,-29.38 52.01,-52.43 85.06,-68.95 33.04,-16.52 70.17,-24.68 111.38,-24.68 35.08,0 65.07,5.71 89.96,16.93 24.88,11.42 47.12,26.52 66.7,45.49l0 -332.91 151.15 0 0 909.38 -92.4 0zm-201.34 -110.15c31.42,0 58.14,-6.53 80.17,-19.38 22.03,-12.85 42.84,-31.01 62.42,-54.67l0 -277.22c-17.14,-22.64 -35.7,-38.56 -55.89,-47.94 -20.2,-9.18 -42.02,-13.87 -65.28,-13.87 -22.85,0 -43.45,4.28 -62.01,12.85 -18.56,8.57 -34.27,21.42 -47.12,38.76 -12.85,17.34 -22.85,39.37 -29.79,66.09 -6.93,26.52 -10.4,58.14 -10.4,94.24 0,36.72 3.06,67.73 8.98,93.23 5.91,25.5 14.28,46.3 25.29,62.42 11.02,16.11 24.48,27.74 40.39,34.88 15.91,7.14 33.66,10.61 53.24,10.61zm695.2 110.15l0 -909.38 151.15 0 0 358.61c24.89,-26.52 53.04,-47.73 84.45,-63.44 31.42,-15.71 68.13,-23.46 110.16,-23.46 34.27,0 65.68,7.14 94.03,21.22 28.36,14.07 52.84,34.47 73.44,61.4 20.6,26.92 36.51,60.38 47.73,99.95 11.22,39.58 16.73,85.07 16.73,136.47 0,47.12 -6.32,90.57 -18.97,130.55 -12.65,39.98 -30.6,74.66 -54.06,104.24 -23.46,29.38 -51.81,52.22 -85.06,68.74 -33.25,16.53 -70.58,24.89 -111.79,24.89 -19.17,0 -36.71,-2.04 -52.63,-5.91 -15.91,-3.88 -30.39,-9.39 -43.44,-16.32 -13.06,-6.94 -25.1,-15.51 -36.31,-25.5 -11.22,-10.2 -22.04,-21.42 -32.23,-33.66l-6.74 42.23c-2.44,10.6 -6.52,18.15 -12.44,22.64 -5.92,4.49 -14.08,6.73 -24.27,6.73l-99.75 0zm293.74 -520.17c-31.42,0 -58.14,6.53 -80.37,19.79 -22.24,13.26 -43.04,32.02 -62.22,56.09l0 281.51c17.14,21.21 35.9,35.9 56.1,44.26 20.19,8.37 42.02,12.65 65.68,12.65 22.85,0 43.45,-4.28 61.81,-12.85 18.36,-8.57 34.07,-21.62 46.92,-39.17 12.85,-17.54 22.64,-39.77 29.58,-66.5 6.93,-26.72 10.4,-58.13 10.4,-94.44 0,-36.72 -2.86,-67.93 -8.77,-93.43 -5.92,-25.5 -14.49,-46.1 -25.5,-62.01 -11.02,-15.91 -24.28,-27.54 -39.98,-34.88 -15.71,-7.35 -33.66,-11.02 -53.65,-11.02zm604.62 693.36c-4.48,10.6 -10.19,18.56 -17.33,24.07 -7.14,5.5 -18.16,8.36 -32.85,8.36l-112.6 0 117.5 -251.52 -253.97 -581.98 132.19 0c12.24,0 21.62,2.86 28.15,8.57 6.53,5.71 11.42,12.24 14.69,19.58l134.02 326.18c4.48,10.61 8.36,21.62 11.62,33.05 3.27,11.42 6.12,22.84 8.57,34.27 3.26,-11.83 6.94,-23.26 10.81,-34.27 3.88,-11.02 7.96,-22.24 12.45,-33.66l126.06 -325.57c3.26,-8.16 8.77,-14.89 16.32,-20.19 7.55,-5.3 15.91,-7.96 25.29,-7.96l121.17 0 -342.09 801.07z"/>
   <g>
    <path class="fil1" d="M8697.43 3928.84l258.73 0c44.9,0 111.35,31.28 130.12,63.16 18.16,-32.03 85.26,-63.91 130.56,-63.91l258.73 0c133.51,26.98 217.47,118.58 231.34,268.17l0 811.86 -247.15 0 0 -837.52 -249.41 0 0 837.52 -119.03 0 0 0.65 -127.78 0 0 -838.17 -252.24 0 0 837.52 -245.21 0.65 0 -811.88c13.82,-149.51 97.74,-241.11 231.34,-268.05z"/>
    <path class="fil1" d="M15186.16 3930.23l224.06 0c178.56,-23.15 285.18,113.94 275.84,257.27l9.34 819.91 -249.16 0.69 0 -837.5 -267.06 0 0 837.5 -246.71 0 0 -810.32c13.52,-149.21 62.21,-251.54 253.69,-267.55z"/>
    <path class="fil1" d="M9891.24 4129.11l0 225.4c0,94.04 -0.55,136.91 -0.55,226.95l0 225.41c22.81,116.34 100.44,189.38 227.21,201.56l688.09 0 0 -243.67 -690.58 -2.84 -5.64 -161 696.22 8.39 0 -137.05 0.65 0 0 -145.54 -696.28 8.33 5.59 -164.43 1562.08 0.65 0 -243.72 -1559.54 0c-126.67,12.22 -204.39,85.21 -227.25,201.56z"/>
    <polygon class="fil1" points="13464.55,5008.83 13706.52,5008.83 13706.52,4319.18 13464.55,4319.18 "/>
    <polygon class="fil1" points="13459.81,4170.56 13701.78,4170.56 13701.78,3930.58 13459.81,3930.58 "/>
    <path class="fil1" d="M12736.14 4919.7l-402.52 -990.18 242.77 0 273.75 673.42 257.72 -677.21 248.81 3.79 -377.81 989.39c-32.94,87.16 -176.07,142.93 -242.72,0.79z"/>
    <path class="fil1" d="M11897.05 4014.27l-402.52 990.03 242.77 0 273.75 -673.28 163.95 430.85 -193.54 0 -94.64 246.26 630.78 -3.83 -377.83 -989.39c-32.92,-87.1 -176.21,-142.94 -242.72,-0.64z"/>
    <path class="fil1" d="M14162.28 4014.27l-402.47 990.03 242.72 0 273.69 -673.28 164.15 430.85 -193.58 0 -94.73 246.26 630.75 -3.83 -377.82 -989.39c-32.97,-87.1 -176.06,-142.94 -242.71,-0.64z"/>
    <polygon class="fil1" points="11047.54,5008.12 11289.51,5008.12 11289.51,4318.39 11047.54,4318.39 "/>
   </g>
  </g>
 </g>
</svg>
