<?xml version="1.0" encoding="UTF-8"?>
<!DOCTYPE svg PUBLIC "-//W3C//DTD SVG 1.1//EN" "http://www.w3.org/Graphics/SVG/1.1/DTD/svg11.dtd">
<!-- Creator: CorelDRAW 2021 (64-Bit) -->
<svg xmlns="http://www.w3.org/2000/svg" xml:space="preserve" width="162.56mm" height="91.4398mm" version="1.1" style="shape-rendering:geometricPrecision; text-rendering:geometricPrecision; image-rendering:optimizeQuality; fill-rule:evenodd; clip-rule:evenodd"
viewBox="0 0 16255.98 9143.98"
 xmlns:xlink="http://www.w3.org/1999/xlink"
 xmlns:xodm="http://www.corel.com/coreldraw/odm/2003">
 <defs>
  <style type="text/css">
   <![CDATA[
    .fil0 {fill:#1D1D1B}
    .fil1 {fill:white}
   ]]>
  </style>
 </defs>
 <g id="Layer_x0020_1">
  <metadata id="CorelCorpID_0Corel-Layer"/>
  <g id="_1605814381264">
   <rect class="fil0" x="5336.07" y="2011.78" width="5637.57" height="5405.91"/>
   <path class="fil1" d="M8253.28 2837.35c9.46,1118.84 -4.21,2256.06 0.77,3377.45l-1.68 95.55c-83.79,-36.89 -779.29,-484.12 -925.37,-572.83 -91.3,-55.44 -210.84,-142.37 -301.49,-185.44l1.06 -1955.24 1226.71 -759.49zm-1469.05 2633.76c-158.4,13.79 -936.01,20.28 -1039.48,-24.24 -159.36,-68.56 -188.31,-204.86 -187.77,-350.79l-0.09 -1069.39c0.1,-170.61 69.11,-276.24 196.34,-328.57 100.38,-41.29 879.69,-33.83 1032.8,-22.4l-1.8 1795.39zm2113.64 416.15c-64.71,33.12 -140.54,-0.89 -142.33,-74.71 -1.44,-59.34 59.91,-102.99 89.37,-142.17 387.94,-516.13 455.56,-1261.87 218.76,-1832.31 -48.18,-116.07 -96.22,-207.12 -162.82,-303.17 -61.28,-88.39 -218.04,-212.86 -79.69,-279.54 193.56,-93.29 838.63,979.7 431.08,2067.45 -42.44,113.26 -93.79,218.86 -153.6,312.15 -38.84,60.57 -157.5,230.15 -200.77,252.3zm718.82 140.02c-51.32,79.92 -213.24,315.09 -280.52,348.55 -90.93,45.22 -169.58,-45.14 -120.66,-133.37 16.27,-29.34 53.59,-55.86 78.2,-85.42 573.24,-688.7 658,-1763.95 344.57,-2593.25 -212.75,-562.92 -559.31,-708.9 -359.54,-796.11 81.59,-35.62 139.9,66.67 178.33,110.57 358.48,409.53 541.85,1098.06 546.18,1651.85 3.98,508.44 -122.64,1086.08 -386.56,1497.18zm402.4 -3245.89c-49.84,-73.68 -242.6,-301.15 -248.76,-329.85 -17.98,-83.82 77.96,-185.99 199.77,-35.95 108.92,134.15 135.08,153.95 241.84,323.72 325.83,518.17 489.77,1187.99 488.35,1828.51 -1.42,645.17 -165.09,1303.45 -492.74,1824.08 -61.27,97.35 -273.1,400.72 -355.53,412.89 -65.08,9.6 -106.22,-29.61 -107.13,-87.46 -0.92,-58.78 41,-80.14 70.2,-114.48 208.92,-245.64 304,-393.49 443.61,-713.16 403.47,-923.85 329.23,-2267.56 -239.61,-3108.3zm-2167.72 -2420.73c-661.65,55.77 -1128.91,192.81 -1649.36,454.26 -1486.63,746.84 -2399.59,2358.62 -2288.03,4033.54 148.9,2235.34 2062.31,4095.96 4486.61,3939.14 2239.82,-144.88 4099.79,-2067.22 3941.14,-4496.03 -38.5,-589.42 -213.64,-1195.56 -453.64,-1644.12 -223.65,-418.02 -552.6,-879.23 -914.44,-1197.59 -827.68,-728.23 -1939.05,-1188.94 -3122.28,-1089.2z"/>
  </g>
 </g>
</svg>
