<?xml version="1.0" encoding="UTF-8"?>
<!DOCTYPE svg PUBLIC "-//W3C//DTD SVG 1.1//EN" "http://www.w3.org/Graphics/SVG/1.1/DTD/svg11.dtd">
<!-- Creator: CorelDRAW 2021 (64-Bit) -->
<svg xmlns="http://www.w3.org/2000/svg" xml:space="preserve" width="162.56mm" height="91.4398mm" version="1.1" style="shape-rendering:geometricPrecision; text-rendering:geometricPrecision; image-rendering:optimizeQuality; fill-rule:evenodd; clip-rule:evenodd"
viewBox="0 0 16255.98 9143.98"
 xmlns:xlink="http://www.w3.org/1999/xlink"
 xmlns:xodm="http://www.corel.com/coreldraw/odm/2003">
 <defs>
  <style type="text/css">
   <![CDATA[
    .fil0 {fill:#1D1D1B}
    .fil1 {fill:white}
   ]]>
  </style>
 </defs>
 <g id="Layer_x0020_1">
  <metadata id="CorelCorpID_0Corel-Layer"/>
  <g id="_1605816539056">
   <rect class="fil0" x="24189.67" y="3645.85" width="5637.57" height="5405.91"/>
   <path class="fil1" d="M27106.88 4471.42c9.46,1118.84 -4.21,2256.06 0.77,3377.45l-1.68 95.55c-83.79,-36.89 -779.29,-484.12 -925.37,-572.83 -91.3,-55.44 -210.84,-142.37 -301.49,-185.44l1.06 -1955.24 1226.71 -759.49zm-1469.05 2633.76c-158.4,13.79 -936.01,20.28 -1039.48,-24.24 -159.36,-68.56 -188.31,-204.86 -187.77,-350.79l-0.09 -1069.39c0.1,-170.61 69.11,-276.24 196.34,-328.57 100.38,-41.29 879.69,-33.83 1032.8,-22.4l-1.8 1795.39zm2113.64 416.15c-64.71,33.12 -140.54,-0.89 -142.33,-74.71 -1.44,-59.34 59.91,-102.99 89.37,-142.17 387.94,-516.13 455.56,-1261.87 218.76,-1832.31 -48.18,-116.07 -96.22,-207.12 -162.82,-303.17 -61.28,-88.39 -218.04,-212.86 -79.69,-279.54 193.56,-93.29 838.63,979.7 431.08,2067.45 -42.44,113.26 -93.79,218.86 -153.6,312.15 -38.84,60.57 -157.5,230.15 -200.77,252.3zm718.82 140.02c-51.32,79.92 -213.24,315.09 -280.52,348.55 -90.93,45.22 -169.58,-45.14 -120.66,-133.37 16.27,-29.34 53.59,-55.86 78.2,-85.42 573.24,-688.7 658,-1763.95 344.57,-2593.25 -212.75,-562.92 -559.31,-708.9 -359.54,-796.11 81.59,-35.62 139.9,66.67 178.33,110.57 358.48,409.53 541.85,1098.06 546.18,1651.85 3.98,508.44 -122.64,1086.08 -386.56,1497.18zm402.4 -3245.89c-49.84,-73.68 -242.6,-301.15 -248.76,-329.85 -17.98,-83.82 77.96,-185.99 199.77,-35.95 108.92,134.15 135.08,153.95 241.84,323.72 325.83,518.17 489.77,1187.99 488.35,1828.51 -1.42,645.17 -165.09,1303.45 -492.74,1824.08 -61.27,97.35 -273.1,400.72 -355.53,412.89 -65.08,9.6 -106.22,-29.61 -107.13,-87.46 -0.92,-58.78 41,-80.14 70.2,-114.48 208.92,-245.64 304,-393.49 443.61,-713.16 403.47,-923.85 329.23,-2267.56 -239.61,-3108.3zm-2167.72 -2420.73c-661.65,55.77 -1128.91,192.81 -1649.36,454.26 -1486.63,746.84 -2399.59,2358.62 -2288.03,4033.54 148.9,2235.34 2062.31,4095.96 4486.61,3939.14 2239.82,-144.88 4099.79,-2067.22 3941.14,-4496.03 -38.5,-589.42 -213.64,-1195.56 -453.64,-1644.12 -223.65,-418.02 -552.6,-879.23 -914.44,-1197.59 -827.68,-728.23 -1939.05,-1188.94 -3122.28,-1089.2z"/>
  </g>
  <g id="_1605816538912">
   <path class="fil1" d="M7220.93 3607.97c110.69,-69.47 1223.1,-774.76 1314.88,-814.44l-1.95 3700.56 -1313.88 -813.55c-2.47,-665.4 -9.7,-1414.93 0.95,-2072.57zm-246.75 1992.65c-181.42,10.71 -990.27,23.66 -1105.66,-29.47 -136.16,-62.7 -207.06,-166.86 -206.68,-367.47l-0.14 -1145.61c1.2,-179.25 87.4,-292.98 215.7,-345.69 108.55,-44.6 927.62,-35.28 1100.79,-25.82l-4.01 1914.06zm3040.37 -640.77c-53.69,-53.87 -119.27,-129.99 -180.67,-176.99l-183.84 173.83c-60.44,68.43 -111.65,114.21 -169.15,170.39 -132.8,129.74 -278.68,345.33 -377.28,253.38 -91.16,-85.01 50.11,-188.26 82.69,-220.84l509.63 -509.74c-28.36,-52.12 -281.77,-290.52 -341.89,-350.5 -61.8,-61.67 -114.19,-114.15 -176.09,-176.05 -35.3,-35.3 -164.24,-136.58 -74.46,-216.84 82.12,-73.43 166.35,40.2 213.41,90.38l516.98 509.41 377.63 -371.99c99.22,-98.85 223.65,-261.39 310.03,-246.91 59.33,9.95 76.13,55.36 68.08,120.9 -9.02,27.53 -527.22,540.34 -617.94,624.65 18.24,59 422.32,442.57 495.43,515.95 65.01,65.24 139.84,84.96 120.41,208.31 -109.25,98.49 -154.09,22.21 -220.87,-44.96 -61.66,-62.02 -114.18,-114.38 -176,-176.14 -61.69,-61.63 -114.5,-114.43 -176.1,-176.24zm2328.98 -96.11c166.37,-2421.35 -1696.43,-4362.42 -3919.12,-4507.1 -2424.95,-157.84 -4346.19,1669.1 -4510.5,3907.17 -178.52,2431.75 1690.42,4369.07 3906.7,4522.33 2442.08,168.88 4369.18,-1684.86 4522.92,-3922.4z"/>
   <path class="fil0" d="M7220.93 3607.97c-10.65,657.64 -3.42,1407.17 -0.95,2072.57l1313.88 813.55 1.95 -3700.56c-91.78,39.68 -1204.19,744.97 -1314.88,814.44z"/>
   <path class="fil0" d="M6974.18 5600.62l4.01 -1914.06c-173.17,-9.46 -992.24,-18.78 -1100.79,25.82 -128.3,52.71 -214.5,166.44 -215.7,345.69l0.14 1145.61c-0.38,200.61 70.52,304.77 206.68,367.47 115.39,53.13 924.24,40.18 1105.66,29.47z"/>
   <path class="fil0" d="M9695.93 4649.88l-509.63 509.74c-32.58,32.58 -173.85,135.83 -82.69,220.84 98.6,91.95 244.48,-123.64 377.28,-253.38 57.5,-56.18 108.71,-101.96 169.15,-170.39l183.84 -173.83c61.4,47 126.98,123.12 180.67,176.99 61.6,61.81 114.41,114.61 176.1,176.24 61.82,61.76 114.34,114.12 176,176.14 66.78,67.17 111.62,143.45 220.87,44.96 19.43,-123.35 -55.4,-143.07 -120.41,-208.31 -73.11,-73.38 -477.19,-456.95 -495.43,-515.95 90.72,-84.31 608.92,-597.12 617.94,-624.65 8.05,-65.54 -8.75,-110.95 -68.08,-120.9 -86.38,-14.48 -210.81,148.06 -310.03,246.91l-377.63 371.99 -516.98 -509.41c-47.06,-50.18 -131.29,-163.81 -213.41,-90.38 -89.78,80.26 39.16,181.54 74.46,216.84 61.9,61.9 114.29,114.38 176.09,176.05 60.12,59.98 313.53,298.38 341.89,350.5z"/>
  </g>
 </g>
</svg>
